<!--?xml version="1.0" encoding="utf-8"?-->
<!-- Generator: Adobe Illustrator 22.1.0, SVG Export Plug-In . SVG Version: 6.00 Build 0)  -->
<svg version="1.1" id="_x38_" xmlns="http://www.w3.org/2000/svg" xmlns:xlink="http://www.w3.org/1999/xlink" x="0px" y="0px" viewBox="0 0 800 380.4" style="enable-background:new 0 0 800 380.4;" xml:space="preserve">
<style type="text/css">
	.st0{fill:#FFFFFF;}
</style>
<g>
	<path class="st0" d="M115.447,132.734c0,0-138.43-13.282-109.461,102.62c20.524,82.096,116.303,47.889,116.303,47.889
		s61.572,95.779,129.985,61.572c0,0,68.413,61.572,102.62,20.524c0,0,129.985,27.365,123.144-34.207
		c0,0,123.144,27.365,109.461-41.048c0,0,75.254,27.365,88.937-20.524c0,0,75.254,13.683,109.461-68.413c0,0,27.231-32.936,0-54.73
		c-34.207-27.365-61.572,6.841-61.572,6.841s-82.096-34.206-102.62-20.523c0,0-6.841-95.779-129.985-47.889
		c0,0-6.842-102.62-143.668-61.572C348.052,23.273,156.495-72.506,115.447,132.734z"></path>
</g>
</svg>
